# xmcd
#
# Track frame offsets: 
#        150
#        19490
#        36390
#        46232
#        57645
#        68869
#        86517
#        97893
#        115743
#        129050
#        150932
#        163842
#
# Disc length: 2341 seconds
#
# Revision: 0
# Processed by: cddbd v1.5.2PL0 Copyright (c) Steve Scherf et al.
# Submitted via: ExactAudioCopy v1.0b3
#
DISCID=9509230c
DTITLE=Coldwater Stone - Defrost Me
DYEAR=1973
DGENRE=Soul
TTITLE0=Jefferson Park
TTITLE1=Your Lover, Me, Your Friend
TTITLE2=When He Breaks Your Heart
TTITLE3=You're The One 
TTITLE4=Outside Love Affair 
TTITLE5=End Of The World
TTITLE6=The Shape You're About To Leave Me In
TTITLE7=Biggest Mistake In The World
TTITLE8=Without The One You Love 
TTITLE9=Diddy Wah Diddy 
TTITLE10=Sound Off
TTITLE11=I'm So Sorry
EXTD=
EXTT0=
EXTT1=
EXTT2=
EXTT3=
EXTT4=
EXTT5=
EXTT6=
EXTT7=
EXTT8=
EXTT9=
EXTT10=
EXTT11=
PLAYORDER=
